<?xml version="1.0" encoding="UTF-8" standalone="no"?>
<svg id="svg2" xmlns:rdf="http://www.w3.org/1999/02/22-rdf-syntax-ns#" xmlns="http://www.w3.org/2000/svg" height="50" width="50" version="1.1" xmlns:cc="http://creativecommons.org/ns#" xmlns:dc="http://purl.org/dc/elements/1.1/" viewBox="0 0 50 50">
 <metadata id="metadata10">
  <rdf:RDF>
   <cc:Work rdf:about="">
    <dc:format>image/svg+xml</dc:format>
    <dc:type rdf:resource="http://purl.org/dc/dcmitype/StillImage"/>
    <dc:title/>
   </cc:Work>
  </rdf:RDF>
 </metadata>
 <g id="layer1" transform="matrix(.205 0 0 .205 3.09 -178)">
  <g id="g4147" transform="translate(-215,409)">
   <path id="path4149" d="m301 642c-34.3-3.5-65.8-17-78-33.3-7.38-9.89-8.45-12.9-8.46-24-0.007-8.45 0.351-10.7 2.31-14.7 9.14-18.6 33.1-33.1 65.3-39.7 63.4-12.9 131 7.11 145 42.7 1.76 4.66 2.08 7.25 1.74 13.7-0.645 12.1-6.15 21.5-18.3 31.2-23.4 18.7-67.5 28.4-109 24.1zm-38.8-34.9c1.59-9.57 1.02-9 9.07-9.02 13.8-0.0466 20.7-3.19 24.9-11.3 2.98-5.73 3.09-14.5 0.232-18.4-3.95-5.39-7.41-6.32-23.5-6.32l-14.6-0.002-4.51 24.2c-2.48 13.3-4.33 24.6-4.1 25 0.227 0.438 2.95 0.664 6.05 0.5l5.64-0.297 0.746-4.5zm4.39-24.6c2.55-12.5 1.71-11.4 8.38-11.4 10.2 0 13.5 3.06 11.1 10.3-1.87 5.66-4.12 6.95-13 7.46l-7.89 0.457 1.4-6.87zm90.4 22.7 1.16-6.89 9.76-0.392c13.2-0.53 18.4-3.05 22.3-10.8 3.8-7.48 3.82-14.6 0.0467-19.1-4.3-5.11-7.56-5.94-23.2-5.94-13.7 0-14 0.0489-14.5 2.25-0.869 3.69-8.51 45.7-8.51 46.8 0 0.554 2.64 1 5.91 1h5.91l1.16-6.89zm3.35-18.4c0.302-1.24 1.07-5.29 1.71-9l1.16-6.75 6.15 0.0147c8.07 0.0194 11.1 1.55 11.5 5.88 0.79 8.2-4.02 12.1-14.9 12.1-5.86 0-6.12-0.101-5.59-2.25zm-48 4.5c0.837-3.71 2.08-9.79 2.75-13.5l1.23-6.75h6.76c4.81 0 7.21 0.453 8.33 1.57 0.864 0.864 1.57 1.77 1.57 2.02 0 0.708-4.07 19.7-4.64 21.7-0.469 1.62 0.11 1.77 5.74 1.5l6.26-0.3 2.28-10c2.52-11.1 2.93-17.6 1.29-20.7-1.75-3.27-7.09-4.85-16.4-4.85-9.77 0-9.36 0.582-7.03-10 0.786-3.58 1.45-6.84 1.46-7.25 0.0193-0.412-2.66-0.75-5.96-0.75s-6 0.22-6 0.488c0 0.269-2.48 12.2-5.5 26.6s-5.5 26.3-5.5 26.5c0 0.219 2.66 0.399 5.92 0.399h5.92l1.52-6.75z" fill="#010101"/>
  </g>
 </g>
</svg>
