<?xml version="1.0" encoding="UTF-8" standalone="no"?>
<svg id="svg2" xmlns:rdf="http://www.w3.org/1999/02/22-rdf-syntax-ns#" xmlns="http://www.w3.org/2000/svg" height="50" viewBox="0 0 50 50" width="50" version="1.1" xmlns:cc="http://creativecommons.org/ns#" xmlns:dc="http://purl.org/dc/elements/1.1/">
 <metadata id="metadata10">
  <rdf:RDF>
   <cc:Work rdf:about="">
    <dc:format>image/svg+xml</dc:format>
    <dc:type rdf:resource="http://purl.org/dc/dcmitype/StillImage"/>
    <dc:title/>
   </cc:Work>
  </rdf:RDF>
 </metadata>
 <path id="path4149" fill="#010101" d="m20.7 35.8c-7-0.7-13.5-3.5-16-6.8-1.48-2-1.7-2.7-1.7-4.9-0.00143-1.73 0.0719-2.19 0.473-3.01 1.87-3.81 6.78-6.78 13.4-8.13 13-2.64 26.8 1.46 29.7 8.74 0.36 0.954 0.426 1.48 0.356 2.8-0.132 2.48-1.26 4.4-3.75 6.39-4.79 3.83-13.8 5.81-22.3 4.93zm-7.94-7.15c0.326-1.96 0.209-1.84 1.86-1.85 2.83-0.0095 4.24-0.653 5.1-2.31 0.61-1.17 0.633-2.97 0.0475-3.77-0.809-1.1-1.52-1.29-4.81-1.29l-2.99-0.000409-0.923 4.95c-0.508 2.72-0.887 5.04-0.839 5.12 0.0465 0.0897 0.604 0.136 1.24 0.102l1.15-0.0608 0.153-0.921zm0.899-5.04c0.522-2.56 0.35-2.33 1.72-2.33 2.09 0 2.76 0.626 2.27 2.11-0.383 1.16-0.844 1.42-2.66 1.53l-1.62 0.0936 0.287-1.41zm18.5 4.65 0.237-1.41 2-0.0803c2.7-0.109 3.77-0.624 4.57-2.21 0.778-1.53 0.782-2.99 0.0096-3.91-0.88-1.05-1.55-1.22-4.75-1.22-2.8 0-2.87 0.01-2.97 0.461-0.178 0.755-1.74 9.36-1.74 9.58 0 0.113 0.541 0.205 1.21 0.205h1.21l0.237-1.41zm0.686-3.77c0.0618-0.254 0.219-1.08 0.35-1.84l0.237-1.38 1.26 0.003c1.65 0.004 2.27 0.317 2.35 1.2 0.162 1.68-0.823 2.48-3.05 2.48-1.2 0-1.25-0.0207-1.14-0.461zm-9.83 0.921c0.171-0.76 0.426-2 0.563-2.76l0.252-1.38h1.38c0.985 0 1.48 0.0928 1.71 0.321 0.177 0.177 0.321 0.362 0.321 0.414 0 0.145-0.833 4.03-0.95 4.44-0.096 0.332 0.0225 0.362 1.18 0.307l1.28-0.0614 0.467-2.05c0.516-2.27 0.6-3.6 0.264-4.24-0.358-0.669-1.45-0.993-3.36-0.993-2 0-1.92 0.119-1.44-2.05 0.161-0.733 0.297-1.4 0.299-1.48 0.004-0.0844-0.545-0.154-1.22-0.154-0.676 0-1.23 0.045-1.23 0.0999 0 0.0551-0.508 2.5-1.13 5.45-0.618 2.95-1.13 5.38-1.13 5.43 0 0.0448 0.545 0.0817 1.21 0.0817h1.21l0.311-1.38z"/>
</svg>
