<?xml version="1.0" encoding="UTF-8" standalone="no"?>
<svg id="svg2" xmlns:rdf="http://www.w3.org/1999/02/22-rdf-syntax-ns#" xmlns="http://www.w3.org/2000/svg" height="50" width="50" version="1.1" xmlns:cc="http://creativecommons.org/ns#" xmlns:dc="http://purl.org/dc/elements/1.1/" viewBox="0 0 50 50">
 <metadata id="metadata10">
  <rdf:RDF>
   <cc:Work rdf:about="">
    <dc:format>image/svg+xml</dc:format>
    <dc:type rdf:resource="http://purl.org/dc/dcmitype/StillImage"/>
    <dc:title/>
   </cc:Work>
  </rdf:RDF>
 </metadata>
 <path id="path4-9" d="m43.8 36.1v4.52c0 3.5-8.6 6.4-18.4 6.4s-18.4-2.9-18.4-6.4v-4.52c4.45 3.2 12.9 4.15 18.4 4.15 5.53 0 14-0.962 18.4-4.15zm-18.4-6.3c-5.53 0-14-0.962-18.4-4.15v4.47c0 3.55 8.57 6.42 18.4 6.42 9.82 0 18.4-2.87 18.4-6.42v-4.47c-4.5 3.2-12.9 4.2-18.4 4.2zm0-26.8c-9.8-0.05-18.4 2.82-18.4 6.37s8.57 6.42 18.4 6.42c9.82 0 18.4-2.87 18.4-6.42s-8.57-6.42-18.4-6.42zm0 16.5c-5.53 0-14-0.962-18.4-4.15v4.49c0 3.55 8.57 6.42 18.4 6.42 9.82 0 18.4-2.87 18.4-6.42v-4.49c-4.45 3.2-12.9 4.15-18.4 4.15z"/>
</svg>
