<?xml version="1.0" standalone="no"?>
<!DOCTYPE svg PUBLIC "-//W3C//DTD SVG 20010904//EN"
 "http://www.w3.org/TR/2001/REC-SVG-20010904/DTD/svg10.dtd">
<svg version="1.0" xmlns="http://www.w3.org/2000/svg"
 width="260.000000pt" height="260.000000pt" viewBox="0 0 260.000000 260.000000"
 preserveAspectRatio="xMidYMid meet">
<metadata>
Created by potrace 1.11, written by Peter Selinger 2001-2013
</metadata>
<g transform="translate(0.000000,260.000000) scale(0.100000,-0.100000)"
fill="#000000" stroke="none">
<path d="M290 2531 c-86 -27 -163 -92 -202 -170 l-23 -46 0 -1010 0 -1010 24
-47 c28 -59 91 -121 151 -151 l45 -22 1010 0 1010 0 47 22 c58 28 119 90 150
151 l23 47 2 1000 2 1000 -22 53 c-29 65 -92 132 -154 163 l-48 24 -995 2
c-547 1 -1006 -2 -1020 -6z m1999 -230 c28 -26 31 -35 32 -93 0 -34 0 -466 0
-959 1 -647 -2 -903 -10 -918 -30 -56 19 -53 -983 -52 -508 0 -940 0 -961 0
-29 1 -46 8 -68 30 l-29 29 0 967 0 967 29 29 29 29 965 0 965 0 31 -29z"/>
<path d="M1225 2105 c-52 -18 -103 -77 -137 -156 -39 -91 -218 -541 -223 -559
-4 -17 -110 -283 -125 -315 -28 -61 -113 -286 -124 -329 -28 -110 46 -200 157
-190 80 8 96 34 197 302 l31 82 308 0 307 0 52 -132 c81 -208 112 -248 188
-252 55 -3 86 10 125 50 31 33 34 40 33 97 0 59 -12 98 -79 252 -7 17 -57 138
-110 270 -53 132 -103 254 -110 270 -7 17 -52 127 -100 245 -117 288 -131 312
-196 354 -36 23 -144 29 -194 11z m113 -400 c11 -33 33 -96 50 -140 70 -189
142 -388 142 -391 0 -2 -101 -4 -225 -4 l-225 0 15 38 c11 30 159 436 197 545
13 35 20 28 46 -48z"/>
</g>
</svg>
